<svg xmlns="http://www.w3.org/2000/svg" viewBox="0 0 640 160" width="640" height="160">
  <defs>
    <linearGradient id="bgBanner" x1="0%" y1="0%" x2="100%" y2="0%">
      <stop offset="0%" style="stop-color:#003A70;stop-opacity:1" />
      <stop offset="60%" style="stop-color:#0078D4;stop-opacity:1" />
      <stop offset="100%" style="stop-color:#1A86D8;stop-opacity:1" />
    </linearGradient>
    <linearGradient id="bgIcon" x1="0%" y1="0%" x2="100%" y2="100%">
      <stop offset="0%" style="stop-color:#1A86D8;stop-opacity:1" />
      <stop offset="100%" style="stop-color:#003A70;stop-opacity:1" />
    </linearGradient>
    <filter id="dropshadow">
      <feDropShadow dx="0" dy="2" stdDeviation="2" flood-color="#001A3A" flood-opacity="0.5"/>
    </filter>
  </defs>

  <!-- Background -->
  <rect width="640" height="160" rx="16" ry="16" fill="url(#bgBanner)"/>

  <!-- Subtle grid -->
  <g opacity="0.06" stroke="white" stroke-width="0.7">
    <line x1="0" y1="40" x2="640" y2="40"/>
    <line x1="0" y1="80" x2="640" y2="80"/>
    <line x1="0" y1="120" x2="640" y2="120"/>
    <line x1="160" y1="0" x2="160" y2="160"/>
    <line x1="320" y1="0" x2="320" y2="160"/>
    <line x1="480" y1="0" x2="480" y2="160"/>
  </g>

  <!-- Icon area background (left panel) -->
  <rect x="16" y="16" width="145" height="128" rx="20" fill="url(#bgIcon)" opacity="0.7"/>

  <!-- Badge -->
  <g transform="translate(89,30)" filter="url(#dropshadow)">
    <polygon points="0,-12 12,-4 8,10 0,6 -8,10 -12,-4" fill="#16A085" stroke="#117A65" stroke-width="0.8"/>
    <text x="0" y="2" text-anchor="middle" font-family="Arial, sans-serif" font-weight="bold" font-size="7" fill="white">T</text>
  </g>

  <!-- Circle with symbol -->
  <g filter="url(#dropshadow)">
    <circle cx="89" cy="90" r="38" fill="white"/>
    <circle cx="89" cy="90" r="32" fill="url(#bgIcon)"/>

    <!-- Open book symbol scaled from icon -->
    <g transform="translate(89,90) scale(0.842) translate(-100,-100)">
      <path d="M100,82 L76,88 L76,118 L100,114 Z" fill="#16A085" opacity="0.70"/>
      <path d="M100,82 L124,88 L124,118 L100,114 Z" fill="#16A085" opacity="0.50"/>
      <line x1="100" y1="82" x2="100" y2="114" stroke="#16A085" stroke-width="2.2" opacity="0.95"/>
      <line x1="80" y1="95" x2="97" y2="93" stroke="white" stroke-width="1.2" opacity="0.55"/>
      <line x1="80" y1="101" x2="97" y2="99" stroke="white" stroke-width="1.2" opacity="0.45"/>
      <line x1="80" y1="107" x2="97" y2="105" stroke="white" stroke-width="1.2" opacity="0.35"/>
      <line x1="103" y1="93" x2="120" y2="95" stroke="white" stroke-width="1.2" opacity="0.45"/>
      <line x1="103" y1="99" x2="120" y2="101" stroke="white" stroke-width="1.2" opacity="0.35"/>
      <line x1="103" y1="105" x2="120" y2="107" stroke="white" stroke-width="1.2" opacity="0.25"/>
      <path d="M76,88 Q88,84 100,82 Q112,84 124,88" fill="none" stroke="#16A085" stroke-width="1.5" opacity="0.80"/>
    </g>

    <circle cx="89" cy="90" r="32" fill="none" stroke="white" stroke-width="1.5" opacity="0.2"/>
  </g>

  <!-- Divider line -->
  <line x1="175" y1="24" x2="175" y2="136" stroke="white" stroke-width="0.8" opacity="0.25"/>

  <!-- Title text -->
  <text x="197" y="62" font-family="'Segoe UI', Arial, sans-serif" font-weight="700"
    font-size="34" fill="white" letter-spacing="-0.5" filter="url(#dropshadow)">Azure Local</text>
  <text x="197" y="106" font-family="'Segoe UI', Arial, sans-serif" font-weight="700"
    font-size="36" fill="#16A085" letter-spacing="1" filter="url(#dropshadow)">Operator Training</text>

  <!-- Tagline -->
  <text x="197" y="138" font-family="'Segoe UI', Arial, sans-serif" font-style="italic"
    font-size="14" fill="white" opacity="0.7" letter-spacing="0.5">Hands-on curriculum for Azure Arc management.</text>

  <!-- Decorative dots -->
  <g fill="white" opacity="0.15">
    <circle cx="580" cy="28" r="3"/>
    <circle cx="595" cy="28" r="3"/>
    <circle cx="610" cy="28" r="3"/>
    <circle cx="587" cy="42" r="3"/>
    <circle cx="602" cy="42" r="3"/>
    <circle cx="617" cy="42" r="3"/>
  </g>
</svg>
